<svg xmlns="http://www.w3.org/2000/svg" viewBox="0 0 1200 330"><defs><linearGradient id="bg"><stop stop-color="#172b40"/><stop offset=".5" stop-color="#294963"/><stop offset="1" stop-color="#172b40"/></linearGradient><clipPath id="chart"><circle cx="600" cy="165" r="140"/></clipPath></defs><rect width="1200" height="330" fill="url(#bg)"/><g stroke="#c5deeb" fill="none" stroke-width="1" opacity=".65"><circle cx="600" cy="165" r="140"/><g clip-path="url(#chart)"><path d="M460 165H740"/><circle cx="623.3333333333334" cy="165" r="116.66666666666667"/><circle cx="646.6666666666666" cy="165" r="93.33333333333333"/><circle cx="670.0" cy="165" r="70.0"/><circle cx="693.3333333333334" cy="165" r="46.666666666666664"/><circle cx="716.6666666666666" cy="165" r="23.333333333333332"/><circle cx="740" cy="-535.0" r="700.0"/><circle cx="740" cy="865.0" r="700.0"/><circle cx="740" cy="-115.0" r="280.0"/><circle cx="740" cy="445.0" r="280.0"/><circle cx="740" cy="25.0" r="140.0"/><circle cx="740" cy="305.0" r="140.0"/><circle cx="740" cy="95.0" r="70.0"/><circle cx="740" cy="235.0" r="70.0"/><circle cx="740" cy="137.0" r="28.0"/><circle cx="740" cy="193.0" r="28.0"/></g></g><g stroke="#7faac4" fill="none" opacity=".35"><path d="M0 80H300L410 165M1200 80H900L790 165"/><path d="M0 115H300L410 165M1200 115H900L790 165"/><path d="M0 165H300L410 165M1200 165H900L790 165"/><path d="M0 215H300L410 165M1200 215H900L790 165"/><path d="M0 250H300L410 165M1200 250H900L790 165"/></g><circle cx="600" cy="165" r="4" fill="#d3b980"/></svg>